# xmcd
# 
# Track frame offsets:
#     150
#     20072
#     44662
#     64602
# 
# Disc length: 1124
# 
# Revision: 1
# Processed by: cddbd v1.5.2PL0 Copyright (c) Steve Scherf et al.
# Submitted via: BonkEnc v1.0.8
# 
DISCID=33046204
DTITLE=竹内　力 - 欲望の街
DYEAR=2003
DGENRE=J-POP
TTITLE0=欲望の街 ORIGINAL Ver.
TTITLE1=欲望の街 INOUE Ver.
TTITLE2=欲望の街 ROCK Ver.
TTITLE3=欲望の街 KARAOKE Ver.
EXTD=
EXTT0=
EXTT1=
EXTT2=
EXTT3=
PLAYORDER=
